<svg width="25" height="25" viewBox="0 0 25 25" fill="none" xmlns="http://www.w3.org/2000/svg">
<g clip-path="url(#clip0_528_10097)">
<g clip-path="url(#clip1_528_10097)">
<g clip-path="url(#clip2_528_10097)">
<path d="M3.35272 20.5718C4.41392 21.8266 5.86492 23.5424 7.73701 23.5424V23.5394H7.83239C8.54703 23.5022 9.24576 23.3486 9.88851 23.0874H9.9065C10.72 22.7607 11.6118 22.5894 12.516 22.5862C13.382 22.594 14.235 22.7614 15.013 23.0762H15.0184C15.6685 23.3473 16.3837 23.4943 17.1114 23.5067H17.2176C19.101 23.4836 20.3049 22.1834 21.5647 20.615C22.4295 19.5906 23.0998 18.4628 23.5524 17.2706V17.2647C22.8432 17.0176 22.1952 16.6641 21.6412 16.2221C21.0293 15.7442 20.5436 15.1668 20.2146 14.526C19.8857 13.8852 19.7207 13.1949 19.7299 12.4987C19.7477 11.5951 20.0396 10.7096 20.5788 9.92367C21.1179 9.13771 21.887 8.47655 22.8155 8.00075C22.2236 7.30221 21.4434 6.72727 20.5366 6.32142C19.6299 5.91557 18.6214 5.68996 17.591 5.66243C17.4192 5.64977 17.2653 5.64307 17.1339 5.64307C15.9972 5.70217 14.8837 5.93602 13.8504 6.33264H13.8288C13.2974 6.54586 12.727 6.68476 12.1408 6.74371C11.5226 6.68952 10.9209 6.54504 10.3636 6.31701H10.3438C9.45062 5.96617 8.4845 5.76016 7.49765 5.71009H7.41667C6.21542 5.74136 5.04448 6.02982 4.01812 6.54732C2.99175 7.06482 2.14503 7.79368 1.56057 8.66275C0.382413 10.5785 0.0403709 12.7723 0.592351 14.8727C1.02735 16.9063 1.96472 18.8436 3.34583 20.5636L3.35272 20.5718Z" fill="black"/>
<path d="M11.918 5.38742C12.0107 5.39426 12.1038 5.39724 12.197 5.39636C12.9609 5.36444 13.7082 5.19966 14.3901 4.91276C15.0719 4.62585 15.6731 4.22327 16.1544 3.73123C17.2211 2.67779 17.7452 1.31982 17.6139 -0.050293C15.9912 0.0900226 14.492 0.731386 13.4153 1.74589C12.3526 2.74744 11.814 4.05729 11.918 5.38742Z" fill="black"/>
</g>
</g>
</g>
<defs>
<clipPath id="clip0_528_10097">
<rect width="24" height="24" fill="white" transform="translate(0.335022 0.359863)"/>
</clipPath>
<clipPath id="clip1_528_10097">
<rect width="24" height="24" fill="white" transform="translate(0.335022 0.359863)"/>
</clipPath>
<clipPath id="clip2_528_10097">
<rect width="24" height="24" fill="white" transform="translate(0.335022 0.359863)"/>
</clipPath>
</defs>
</svg>
