<svg width="40" height="40" viewBox="0 0 40 40" fill="none" xmlns="http://www.w3.org/2000/svg">
<path d="M0 20C0 8.95431 8.95431 0 20 0C31.0457 0 40 8.95431 40 20C40 31.0457 31.0457 40 20 40C8.95431 40 0 31.0457 0 20Z" fill="white" fill-opacity="0.1"/>
<path d="M20 0.25C30.9076 0.25 39.75 9.09238 39.75 20C39.75 30.9076 30.9076 39.75 20 39.75C9.09238 39.75 0.25 30.9076 0.25 20C0.25 9.09238 9.09238 0.25 20 0.25Z" stroke="white" stroke-opacity="0.08" stroke-width="0.5"/>
<path d="M31 19H14C13.45 19 13 19.45 13 20C13 20.55 13.45 21 14 21H31C31.55 21 32 20.55 32 20C32 19.45 31.55 19 31 19Z" fill="white"/>
<path d="M9 11L26 11C26.55 11 27 11.45 27 12C27 12.55 26.55 13 26 13H9C8.45 13 8 12.55 8 12C8 11.45 8.45 11 9 11Z" fill="white"/>
<path d="M9 27C8.45 27 8 27.45 8 28C8 28.55 8.45 29 9 29H26C26.55 29 27 28.55 27 28C27 27.45 26.55 27 26 27H9Z" fill="white"/>
</svg>
