<svg width="40" height="40" viewBox="0 0 40 40" fill="none" xmlns="http://www.w3.org/2000/svg">
<path d="M0 20C0 8.95431 8.95431 0 20 0C31.0457 0 40 8.95431 40 20C40 31.0457 31.0457 40 20 40C8.95431 40 0 31.0457 0 20Z" fill="white" fill-opacity="0.1"/>
<path d="M20 0.25C30.9076 0.25 39.75 9.09238 39.75 20C39.75 30.9076 30.9076 39.75 20 39.75C9.09238 39.75 0.25 30.9076 0.25 20C0.25 9.09238 9.09238 0.25 20 0.25Z" stroke="white" stroke-opacity="0.08" stroke-width="0.5"/>
<path d="M28 19H11C10.45 19 10 19.45 10 20C10 20.55 10.45 21 11 21H28C28.55 21 29 20.55 29 20C29 19.45 28.55 19 28 19Z" fill="white"/>
<path d="M14.3086 27.2858L22.8086 12.5634C23.0836 12.0871 23.6983 11.9224 24.1746 12.1974C24.6509 12.4724 24.8156 13.0871 24.5406 13.5634L16.0406 28.2858C15.7656 28.7621 15.1509 28.9269 14.6746 28.6519C14.1983 28.3769 14.0336 27.7621 14.3086 27.2858Z" fill="white"/>
<path d="M16.0408 12.5634C15.7658 12.0871 15.1511 11.9224 14.6747 12.1974C14.1984 12.4724 14.0337 13.0871 14.3087 13.5634L22.8087 28.2858C23.0837 28.7622 23.6984 28.9269 24.1747 28.6519C24.6511 28.3769 24.8158 27.7622 24.5408 27.2858L16.0408 12.5634Z" fill="white"/>
</svg>
