<svg width="49" height="49" viewBox="0 0 49 49" fill="none" xmlns="http://www.w3.org/2000/svg">
<rect x="0.5" y="0.589844" width="48" height="48" rx="12" fill="url(#paint0_linear_497_14177)"/>
<path d="M32.75 20.9235C33.7626 20.9235 34.5834 21.7443 34.5834 22.7568V26.4235C34.5834 27.4361 33.7626 28.2568 32.75 28.2568H31.7766C31.3255 31.8743 28.2397 34.6735 24.5 34.6735V32.8402C27.5376 32.8402 30 30.3777 30 27.3402V21.8402C30 18.8026 27.5376 16.3402 24.5 16.3402C21.4625 16.3402 19 18.8026 19 21.8402V28.2568H16.25C15.2375 28.2568 14.4167 27.4361 14.4167 26.4235V22.7568C14.4167 21.7443 15.2375 20.9235 16.25 20.9235H17.2234C17.6745 17.3061 20.7604 14.5068 24.5 14.5068C28.2397 14.5068 31.3255 17.3061 31.7766 20.9235H32.75ZM20.6128 28.0597L21.5846 26.5048C22.4298 27.0342 23.4292 27.3402 24.5 27.3402C25.5709 27.3402 26.5702 27.0342 27.4154 26.5048L28.3872 28.0597C27.2603 28.7655 25.9278 29.1735 24.5 29.1735C23.0722 29.1735 21.7398 28.7655 20.6128 28.0597Z" fill="white"/>
<defs>
<linearGradient id="paint0_linear_497_14177" x1="48.5" y1="24.5899" x2="0.5" y2="24.5899" gradientUnits="userSpaceOnUse">
<stop stop-color="#5021FF"/>
<stop offset="1" stop-color="#8921FF"/>
</linearGradient>
</defs>
</svg>
