<svg width="25" height="25" viewBox="0 0 25 25" fill="none" xmlns="http://www.w3.org/2000/svg">
<g clip-path="url(#clip0_528_10088)">
<g clip-path="url(#clip1_528_10088)">
<g clip-path="url(#clip2_528_10088)">
<path d="M17.5702 15.4013L13.9675 12.0806L2.04596 23.2192C2.15992 23.1796 2.27039 23.1319 2.37637 23.0766L17.5702 15.4013Z" fill="white"/>
<path d="M0.343897 1.33307C0.350073 2.69178 0.446829 20.8053 0.456093 21.9474C0.429246 22.1852 0.466294 22.4254 0.56396 22.6469C0.661626 22.8682 0.8169 23.064 1.01605 23.2169L13.4482 11.6022L0.961492 0.0883789C0.745994 0.224691 0.574692 0.412514 0.465907 0.631755C0.357123 0.850997 0.314949 1.09342 0.343897 1.33307Z" fill="white"/>
<path d="M18.2413 8.09033L14.4874 11.5973L18.2454 15.0606L23.4106 12.4506C24.0282 12.136 24.6849 11.3341 23.4106 10.6928L18.2413 8.09033Z" fill="white"/>
<path d="M2.37684 0.10268C2.21185 0.0219951 2.03214 -0.029866 1.84674 -0.050293L13.965 11.1187L17.5676 7.75325L2.37684 0.10268Z" fill="white"/>
</g>
</g>
</g>
<defs>
<clipPath id="clip0_528_10088">
<rect width="24" height="24" fill="white" transform="translate(0.335022 0.359863)"/>
</clipPath>
<clipPath id="clip1_528_10088">
<rect width="24" height="24" fill="white" transform="translate(0.335022 0.359863)"/>
</clipPath>
<clipPath id="clip2_528_10088">
<rect width="24" height="24" fill="white" transform="translate(0.335022 0.359863)"/>
</clipPath>
</defs>
</svg>
