<svg width="48" height="49" viewBox="0 0 48 49" fill="none" xmlns="http://www.w3.org/2000/svg">
<g clip-path="url(#clip0_497_13905)">
<g clip-path="url(#clip1_497_13905)">
<path d="M37.6 0.589844H10.4C4.65624 0.589844 0 5.24608 0 10.9898V38.1898C0 43.9336 4.65624 48.5898 10.4 48.5898H37.6C43.3438 48.5898 48 43.9336 48 38.1898V10.9898C48 5.24608 43.3438 0.589844 37.6 0.589844Z" fill="url(#paint0_linear_497_13905)"/>
<path d="M22.6923 18.0444V27.0444C22.6923 27.9307 22.5219 28.7766 22.1812 29.582C21.8405 30.3874 21.3798 31.0842 20.7993 31.6722C20.2188 32.2603 19.5309 32.7269 18.7359 33.0721C17.9408 33.4173 17.1058 33.5898 16.2308 33.5898H15.4231C15.2044 33.5898 15.015 33.5089 14.8552 33.3469C14.6953 33.185 14.6154 32.9933 14.6154 32.7717V31.1353C14.6154 30.9137 14.6953 30.7219 14.8552 30.56C15.015 30.3981 15.2044 30.3171 15.4231 30.3171H16.2308C17.1226 30.3171 17.884 29.9975 18.5151 29.3583C19.146 28.7191 19.4616 27.9478 19.4616 27.0444V26.6353C19.4616 26.2944 19.3438 26.0046 19.1082 25.766C18.8726 25.5274 18.5866 25.4081 18.25 25.4081H15.4231C14.7501 25.4081 14.1779 25.1694 13.7067 24.6921C13.2356 24.2149 13 23.6353 13 22.9535V18.0444C13 17.3626 13.2356 16.783 13.7067 16.3058C14.1779 15.8285 14.7501 15.5898 15.4231 15.5898H20.2693C20.9423 15.5898 21.5144 15.8285 21.9856 16.3058C22.4567 16.783 22.6923 17.3626 22.6923 18.0444ZM34 18.0444V27.0444C34 27.9307 33.8296 28.7766 33.4889 29.582C33.1482 30.3874 32.6875 31.0842 32.107 31.6722C31.5264 32.2603 30.8386 32.7269 30.0436 33.0721C29.2485 33.4173 28.4135 33.5898 27.5385 33.5898H26.7308C26.5121 33.5898 26.3227 33.5089 26.1629 33.3469C26.003 33.185 25.9231 32.9933 25.9231 32.7717V31.1353C25.9231 30.9137 26.003 30.7219 26.1629 30.56C26.3227 30.3981 26.5121 30.3171 26.7308 30.3171H27.5385C28.4303 30.3171 29.1917 29.9975 29.8228 29.3583C30.4537 28.7191 30.7693 27.9478 30.7693 27.0444V26.6353C30.7693 26.2944 30.6515 26.0046 30.4159 25.766C30.1803 25.5274 29.8942 25.4081 29.5577 25.4081H26.7308C26.0577 25.4081 25.4856 25.1694 25.0144 24.6921C24.5433 24.2149 24.3077 23.6353 24.3077 22.9535V18.0444C24.3077 17.3626 24.5433 16.783 25.0144 16.3058C25.4856 15.8285 26.0577 15.5898 26.7308 15.5898H31.577C32.25 15.5898 32.8221 15.8285 33.2933 16.3058C33.7644 16.783 34 17.3626 34 18.0444Z" fill="white"/>
</g>
</g>
<defs>
<linearGradient id="paint0_linear_497_13905" x1="48" y1="24.5899" x2="0" y2="24.5899" gradientUnits="userSpaceOnUse">
<stop stop-color="#5021FF"/>
<stop offset="1" stop-color="#8921FF"/>
</linearGradient>
<clipPath id="clip0_497_13905">
<rect width="48" height="48" fill="white" transform="translate(0 0.589844)"/>
</clipPath>
<clipPath id="clip1_497_13905">
<rect width="48" height="48" fill="white" transform="translate(0 0.589844)"/>
</clipPath>
</defs>
</svg>
